0
SECTION
2
HEADER
9
$INSUNITS
70
4
0
ENDSEC
0
SECTION
2
ENTITIES
0
POLYLINE
8
KONTUR
66
1
70
1
10
0
20
0
30
0
0
VERTEX
8
KONTUR
10
0.000
20
115.000
30
0
0
VERTEX
8
KONTUR
10
210.000
20
115.000
30
0
0
VERTEX
8
KONTUR
10
210.000
20
0.000
30
0
0
VERTEX
8
KONTUR
10
0.000
20
0.000
30
0
0
SEQEND
8
KONTUR
0
CIRCLE
8
BOHRUNG
10
27.000
20
85.000
30
0
40
6.000
0
CIRCLE
8
INFO
10
27.000
20
85.000
30
0
40
12.500
0
LINE
8
BOHRUNG
10
24.000
20
85.000
30
0
11
30.000
21
85.000
31
0
0
LINE
8
BOHRUNG
10
27.000
20
88.000
30
0
11
27.000
21
82.000
31
0
0
TEXT
8
BOHRUNG
10
34.500
20
92.500
30
0
40
2.60
1
FS 1
0
CIRCLE
8
BOHRUNG
10
79.000
20
85.000
30
0
40
6.000
0
CIRCLE
8
INFO
10
79.000
20
85.000
30
0
40
12.500
0
LINE
8
BOHRUNG
10
76.000
20
85.000
30
0
11
82.000
21
85.000
31
0
0
LINE
8
BOHRUNG
10
79.000
20
88.000
30
0
11
79.000
21
82.000
31
0
0
TEXT
8
BOHRUNG
10
86.500
20
92.500
30
0
40
2.60
1
FS 2
0
CIRCLE
8
BOHRUNG
10
131.000
20
85.000
30
0
40
6.000
0
CIRCLE
8
INFO
10
131.000
20
85.000
30
0
40
12.500
0
LINE
8
BOHRUNG
10
128.000
20
85.000
30
0
11
134.000
21
85.000
31
0
0
LINE
8
BOHRUNG
10
131.000
20
88.000
30
0
11
131.000
21
82.000
31
0
0
TEXT
8
BOHRUNG
10
138.500
20
92.500
30
0
40
2.60
1
FS 3
0
CIRCLE
8
BOHRUNG
10
183.000
20
85.000
30
0
40
6.000
0
CIRCLE
8
INFO
10
183.000
20
85.000
30
0
40
12.500
0
LINE
8
BOHRUNG
10
180.000
20
85.000
30
0
11
186.000
21
85.000
31
0
0
LINE
8
BOHRUNG
10
183.000
20
88.000
30
0
11
183.000
21
82.000
31
0
0
TEXT
8
BOHRUNG
10
190.500
20
92.500
30
0
40
2.60
1
FS 4
0
CIRCLE
8
BOHRUNG
10
27.000
20
30.000
30
0
40
6.000
0
CIRCLE
8
INFO
10
27.000
20
30.000
30
0
40
12.500
0
LINE
8
BOHRUNG
10
24.000
20
30.000
30
0
11
30.000
21
30.000
31
0
0
LINE
8
BOHRUNG
10
27.000
20
33.000
30
0
11
27.000
21
27.000
31
0
0
TEXT
8
BOHRUNG
10
34.500
20
37.500
30
0
40
2.60
1
FS 5
0
CIRCLE
8
BOHRUNG
10
79.000
20
30.000
30
0
40
6.000
0
CIRCLE
8
INFO
10
79.000
20
30.000
30
0
40
12.500
0
LINE
8
BOHRUNG
10
76.000
20
30.000
30
0
11
82.000
21
30.000
31
0
0
LINE
8
BOHRUNG
10
79.000
20
33.000
30
0
11
79.000
21
27.000
31
0
0
TEXT
8
BOHRUNG
10
86.500
20
37.500
30
0
40
2.60
1
FS 6
0
CIRCLE
8
BOHRUNG
10
131.000
20
30.000
30
0
40
6.000
0
CIRCLE
8
INFO
10
131.000
20
30.000
30
0
40
12.500
0
LINE
8
BOHRUNG
10
128.000
20
30.000
30
0
11
134.000
21
30.000
31
0
0
LINE
8
BOHRUNG
10
131.000
20
33.000
30
0
11
131.000
21
27.000
31
0
0
TEXT
8
BOHRUNG
10
138.500
20
37.500
30
0
40
2.60
1
FS 7
0
CIRCLE
8
BOHRUNG
10
183.000
20
30.000
30
0
40
6.000
0
CIRCLE
8
INFO
10
183.000
20
30.000
30
0
40
12.500
0
LINE
8
BOHRUNG
10
180.000
20
30.000
30
0
11
186.000
21
30.000
31
0
0
LINE
8
BOHRUNG
10
183.000
20
33.000
30
0
11
183.000
21
27.000
31
0
0
TEXT
8
BOHRUNG
10
190.500
20
37.500
30
0
40
2.60
1
FS 8
0
ENDSEC
0
EOF
