0
SECTION
2
HEADER
9
$INSUNITS
70
4
0
ENDSEC
0
SECTION
2
ENTITIES
0
POLYLINE
8
KONTUR
66
1
70
1
10
0
20
0
30
0
0
VERTEX
8
KONTUR
10
0.000
20
90.000
30
0
0
VERTEX
8
KONTUR
10
130.000
20
90.000
30
0
0
VERTEX
8
KONTUR
10
130.000
20
0.000
30
0
0
VERTEX
8
KONTUR
10
0.000
20
0.000
30
0
0
SEQEND
8
KONTUR
0
POLYLINE
8
TASCHE_UNTEN
66
1
70
1
10
0
20
0
30
0
0
VERTEX
8
TASCHE_UNTEN
10
11.650
20
79.200
30
0
0
VERTEX
8
TASCHE_UNTEN
10
118.350
20
79.200
30
0
0
VERTEX
8
TASCHE_UNTEN
10
118.350
20
10.800
30
0
0
VERTEX
8
TASCHE_UNTEN
10
11.650
20
10.800
30
0
0
SEQEND
8
TASCHE_UNTEN
0
POLYLINE
8
DURCHFRAESEN
66
1
70
1
10
0
20
0
30
0
0
VERTEX
8
DURCHFRAESEN
10
16.680
20
75.050
30
0
0
VERTEX
8
DURCHFRAESEN
10
113.220
20
75.050
30
0
0
VERTEX
8
DURCHFRAESEN
10
113.220
20
19.690
30
0
0
VERTEX
8
DURCHFRAESEN
10
16.680
20
19.690
30
0
0
SEQEND
8
DURCHFRAESEN
0
LINE
8
INFO
10
14.400
20
75.000
30
0
11
17.600
21
75.000
31
0
0
LINE
8
INFO
10
16.000
20
76.600
30
0
11
16.000
21
73.400
31
0
0
LINE
8
INFO
10
112.400
20
75.000
30
0
11
115.600
21
75.000
31
0
0
LINE
8
INFO
10
114.000
20
76.600
30
0
11
114.000
21
73.400
31
0
0
LINE
8
INFO
10
14.400
20
15.000
30
0
11
17.600
21
15.000
31
0
0
LINE
8
INFO
10
16.000
20
16.600
30
0
11
16.000
21
13.400
31
0
0
LINE
8
INFO
10
112.400
20
15.000
30
0
11
115.600
21
15.000
31
0
0
LINE
8
INFO
10
114.000
20
16.600
30
0
11
114.000
21
13.400
31
0
0
TEXT
8
DURCHFRAESEN
10
43.000
20
66.550
30
0
40
2.60
1
Fenster 96.5 x 55.4 (durchfräsen)
0
TEXT
8
TASCHE_UNTEN
10
43.000
20
61.550
30
0
40
2.60
1
Tasche von unten 106.7 x 68.4
0
TEXT
8
INFO
10
43.000
20
56.550
30
0
40
2.20
1
Kreuze: Platinenlöcher 98 x 60 (Rückseite)
0
TEXT
8
INFO
10
56.000
20
80.500
30
0
40
2.20
1
OBEN (Glas)
0
POLYLINE
8
INFO
66
1
70
1
10
0
20
0
30
0
0
VERTEX
8
INFO
10
118.050
20
52.100
30
0
0
VERTEX
8
INFO
10
130.050
20
52.100
30
0
0
VERTEX
8
INFO
10
130.050
20
40.100
30
0
0
VERTEX
8
INFO
10
118.050
20
40.100
30
0
0
SEQEND
8
INFO
0
TEXT
8
INFO
10
118.850
20
37.100
30
0
40
2.00
1
USB-C 90°
0
POLYLINE
8
INFO
66
1
70
1
10
0
20
0
30
0
0
VERTEX
8
INFO
10
1.950
20
53.730
30
0
0
VERTEX
8
INFO
10
11.950
20
53.730
30
0
0
VERTEX
8
INFO
10
11.950
20
45.730
30
0
0
VERTEX
8
INFO
10
1.950
20
45.730
30
0
0
SEQEND
8
INFO
0
TEXT
8
INFO
10
1.950
20
42.730
30
0
40
2.00
1
I2C
0
ENDSEC
0
EOF
