0
SECTION
2
HEADER
9
$INSUNITS
70
4
0
ENDSEC
0
SECTION
2
ENTITIES
0
POLYLINE
8
KONTUR
66
1
70
1
10
0
20
0
30
0
0
VERTEX
8
KONTUR
10
0.000
20
115.000
30
0
0
VERTEX
8
KONTUR
10
210.000
20
115.000
30
0
0
VERTEX
8
KONTUR
10
210.000
20
0.000
30
0
0
VERTEX
8
KONTUR
10
0.000
20
0.000
30
0
0
SEQEND
8
KONTUR
0
POLYLINE
8
TASCHE_UNTEN
66
1
70
1
10
0
20
0
30
0
0
VERTEX
8
TASCHE_UNTEN
10
51.650
20
107.300
30
0
0
VERTEX
8
TASCHE_UNTEN
10
158.350
20
107.300
30
0
0
VERTEX
8
TASCHE_UNTEN
10
158.350
20
38.900
30
0
0
VERTEX
8
TASCHE_UNTEN
10
51.650
20
38.900
30
0
0
SEQEND
8
TASCHE_UNTEN
0
POLYLINE
8
DURCHFRAESEN
66
1
70
1
10
0
20
0
30
0
0
VERTEX
8
DURCHFRAESEN
10
56.680
20
103.150
30
0
0
VERTEX
8
DURCHFRAESEN
10
153.220
20
103.150
30
0
0
VERTEX
8
DURCHFRAESEN
10
153.220
20
47.790
30
0
0
VERTEX
8
DURCHFRAESEN
10
56.680
20
47.790
30
0
0
SEQEND
8
DURCHFRAESEN
0
LINE
8
INFO
10
54.400
20
103.100
30
0
11
57.600
21
103.100
31
0
0
LINE
8
INFO
10
56.000
20
104.700
30
0
11
56.000
21
101.500
31
0
0
LINE
8
INFO
10
152.400
20
103.100
30
0
11
155.600
21
103.100
31
0
0
LINE
8
INFO
10
154.000
20
104.700
30
0
11
154.000
21
101.500
31
0
0
LINE
8
INFO
10
54.400
20
43.100
30
0
11
57.600
21
43.100
31
0
0
LINE
8
INFO
10
56.000
20
44.700
30
0
11
56.000
21
41.500
31
0
0
LINE
8
INFO
10
152.400
20
43.100
30
0
11
155.600
21
43.100
31
0
0
LINE
8
INFO
10
154.000
20
44.700
30
0
11
154.000
21
41.500
31
0
0
TEXT
8
DURCHFRAESEN
10
83.000
20
94.650
30
0
40
2.60
1
Fenster 96.5 x 55.4 (durchfräsen)
0
TEXT
8
TASCHE_UNTEN
10
83.000
20
89.650
30
0
40
2.60
1
Tasche von unten 106.7 x 68.4
0
TEXT
8
INFO
10
83.000
20
84.650
30
0
40
2.20
1
Kreuze: Platinenlöcher 98 x 60 (Rückseite)
0
TEXT
8
INFO
10
96.000
20
108.600
30
0
40
2.20
1
OBEN (Glas)
0
POLYLINE
8
INFO
66
1
70
1
10
0
20
0
30
0
0
VERTEX
8
INFO
10
158.050
20
80.200
30
0
0
VERTEX
8
INFO
10
170.050
20
80.200
30
0
0
VERTEX
8
INFO
10
170.050
20
68.200
30
0
0
VERTEX
8
INFO
10
158.050
20
68.200
30
0
0
SEQEND
8
INFO
0
TEXT
8
INFO
10
158.850
20
65.200
30
0
40
2.00
1
USB-C 90°
0
POLYLINE
8
INFO
66
1
70
1
10
0
20
0
30
0
0
VERTEX
8
INFO
10
41.950
20
81.830
30
0
0
VERTEX
8
INFO
10
51.950
20
81.830
30
0
0
VERTEX
8
INFO
10
51.950
20
73.830
30
0
0
VERTEX
8
INFO
10
41.950
20
73.830
30
0
0
SEQEND
8
INFO
0
TEXT
8
INFO
10
41.950
20
70.830
30
0
40
2.00
1
I2C
0
CIRCLE
8
BOHRUNG
10
26.000
20
73.100
30
0
40
6.000
0
CIRCLE
8
INFO
10
26.000
20
73.100
30
0
40
12.500
0
LINE
8
BOHRUNG
10
23.000
20
73.100
30
0
11
29.000
21
73.100
31
0
0
LINE
8
BOHRUNG
10
26.000
20
76.100
30
0
11
26.000
21
70.100
31
0
0
TEXT
8
BOHRUNG
10
33.500
20
80.600
30
0
40
2.60
1
FS 1
0
CIRCLE
8
BOHRUNG
10
184.000
20
73.100
30
0
40
6.000
0
CIRCLE
8
INFO
10
184.000
20
73.100
30
0
40
12.500
0
LINE
8
BOHRUNG
10
181.000
20
73.100
30
0
11
187.000
21
73.100
31
0
0
LINE
8
BOHRUNG
10
184.000
20
76.100
30
0
11
184.000
21
70.100
31
0
0
TEXT
8
BOHRUNG
10
191.500
20
80.600
30
0
40
2.60
1
FS 2
0
CIRCLE
8
BOHRUNG
10
30.000
20
18.000
30
0
40
6.000
0
CIRCLE
8
INFO
10
30.000
20
18.000
30
0
40
12.500
0
LINE
8
BOHRUNG
10
27.000
20
18.000
30
0
11
33.000
21
18.000
31
0
0
LINE
8
BOHRUNG
10
30.000
20
21.000
30
0
11
30.000
21
15.000
31
0
0
TEXT
8
BOHRUNG
10
37.500
20
25.500
30
0
40
2.60
1
FS 3
0
CIRCLE
8
BOHRUNG
10
80.000
20
18.000
30
0
40
6.000
0
CIRCLE
8
INFO
10
80.000
20
18.000
30
0
40
12.500
0
LINE
8
BOHRUNG
10
77.000
20
18.000
30
0
11
83.000
21
18.000
31
0
0
LINE
8
BOHRUNG
10
80.000
20
21.000
30
0
11
80.000
21
15.000
31
0
0
TEXT
8
BOHRUNG
10
87.500
20
25.500
30
0
40
2.60
1
FS 4
0
CIRCLE
8
BOHRUNG
10
130.000
20
18.000
30
0
40
6.000
0
CIRCLE
8
INFO
10
130.000
20
18.000
30
0
40
12.500
0
LINE
8
BOHRUNG
10
127.000
20
18.000
30
0
11
133.000
21
18.000
31
0
0
LINE
8
BOHRUNG
10
130.000
20
21.000
30
0
11
130.000
21
15.000
31
0
0
TEXT
8
BOHRUNG
10
137.500
20
25.500
30
0
40
2.60
1
FS 5
0
CIRCLE
8
BOHRUNG
10
180.000
20
18.000
30
0
40
6.000
0
CIRCLE
8
INFO
10
180.000
20
18.000
30
0
40
12.500
0
LINE
8
BOHRUNG
10
177.000
20
18.000
30
0
11
183.000
21
18.000
31
0
0
LINE
8
BOHRUNG
10
180.000
20
21.000
30
0
11
180.000
21
15.000
31
0
0
TEXT
8
BOHRUNG
10
187.500
20
25.500
30
0
40
2.60
1
FS 6
0
ENDSEC
0
EOF
