0
SECTION
2
HEADER
9
$INSUNITS
70
4
0
ENDSEC
0
SECTION
2
ENTITIES
0
POLYLINE
8
KONTUR
66
1
70
1
10
0
20
0
30
0
0
VERTEX
8
KONTUR
10
0.000
20
100.000
30
0
0
VERTEX
8
KONTUR
10
290.000
20
100.000
30
0
0
VERTEX
8
KONTUR
10
290.000
20
0.000
30
0
0
VERTEX
8
KONTUR
10
0.000
20
0.000
30
0
0
SEQEND
8
KONTUR
0
CIRCLE
8
BOHRUNG
10
37.000
20
75.000
30
0
40
6.000
0
CIRCLE
8
INFO
10
37.000
20
75.000
30
0
40
12.500
0
LINE
8
BOHRUNG
10
34.000
20
75.000
30
0
11
40.000
21
75.000
31
0
0
LINE
8
BOHRUNG
10
37.000
20
78.000
30
0
11
37.000
21
72.000
31
0
0
TEXT
8
BOHRUNG
10
44.500
20
82.500
30
0
40
2.60
1
FS 1
0
CIRCLE
8
BOHRUNG
10
109.000
20
75.000
30
0
40
6.000
0
CIRCLE
8
INFO
10
109.000
20
75.000
30
0
40
12.500
0
LINE
8
BOHRUNG
10
106.000
20
75.000
30
0
11
112.000
21
75.000
31
0
0
LINE
8
BOHRUNG
10
109.000
20
78.000
30
0
11
109.000
21
72.000
31
0
0
TEXT
8
BOHRUNG
10
116.500
20
82.500
30
0
40
2.60
1
FS 2
0
CIRCLE
8
BOHRUNG
10
181.000
20
75.000
30
0
40
6.000
0
CIRCLE
8
INFO
10
181.000
20
75.000
30
0
40
12.500
0
LINE
8
BOHRUNG
10
178.000
20
75.000
30
0
11
184.000
21
75.000
31
0
0
LINE
8
BOHRUNG
10
181.000
20
78.000
30
0
11
181.000
21
72.000
31
0
0
TEXT
8
BOHRUNG
10
188.500
20
82.500
30
0
40
2.60
1
FS 3
0
CIRCLE
8
BOHRUNG
10
253.000
20
75.000
30
0
40
6.000
0
CIRCLE
8
INFO
10
253.000
20
75.000
30
0
40
12.500
0
LINE
8
BOHRUNG
10
250.000
20
75.000
30
0
11
256.000
21
75.000
31
0
0
LINE
8
BOHRUNG
10
253.000
20
78.000
30
0
11
253.000
21
72.000
31
0
0
TEXT
8
BOHRUNG
10
260.500
20
82.500
30
0
40
2.60
1
FS 4
0
CIRCLE
8
BOHRUNG
10
37.000
20
25.000
30
0
40
6.000
0
CIRCLE
8
INFO
10
37.000
20
25.000
30
0
40
12.500
0
LINE
8
BOHRUNG
10
34.000
20
25.000
30
0
11
40.000
21
25.000
31
0
0
LINE
8
BOHRUNG
10
37.000
20
28.000
30
0
11
37.000
21
22.000
31
0
0
TEXT
8
BOHRUNG
10
44.500
20
32.500
30
0
40
2.60
1
FS 5
0
CIRCLE
8
BOHRUNG
10
109.000
20
25.000
30
0
40
6.000
0
CIRCLE
8
INFO
10
109.000
20
25.000
30
0
40
12.500
0
LINE
8
BOHRUNG
10
106.000
20
25.000
30
0
11
112.000
21
25.000
31
0
0
LINE
8
BOHRUNG
10
109.000
20
28.000
30
0
11
109.000
21
22.000
31
0
0
TEXT
8
BOHRUNG
10
116.500
20
32.500
30
0
40
2.60
1
FS 6
0
CIRCLE
8
BOHRUNG
10
181.000
20
25.000
30
0
40
6.000
0
CIRCLE
8
INFO
10
181.000
20
25.000
30
0
40
12.500
0
LINE
8
BOHRUNG
10
178.000
20
25.000
30
0
11
184.000
21
25.000
31
0
0
LINE
8
BOHRUNG
10
181.000
20
28.000
30
0
11
181.000
21
22.000
31
0
0
TEXT
8
BOHRUNG
10
188.500
20
32.500
30
0
40
2.60
1
FS 7
0
CIRCLE
8
BOHRUNG
10
253.000
20
25.000
30
0
40
6.000
0
CIRCLE
8
INFO
10
253.000
20
25.000
30
0
40
12.500
0
LINE
8
BOHRUNG
10
250.000
20
25.000
30
0
11
256.000
21
25.000
31
0
0
LINE
8
BOHRUNG
10
253.000
20
28.000
30
0
11
253.000
21
22.000
31
0
0
TEXT
8
BOHRUNG
10
260.500
20
32.500
30
0
40
2.60
1
FS 8
0
ENDSEC
0
EOF
